<svg xmlns="http://www.w3.org/2000/svg" width="512" height="512" viewBox="0 0 512 512">
  <defs>
    <linearGradient id="g" x1="0" y1="0" x2="1" y2="1">
      <stop offset="0" stop-color="#6366F1"/>
      <stop offset="1" stop-color="#10B981"/>
    </linearGradient>
    <filter id="shadow" x="-20%" y="-20%" width="140%" height="140%">
      <feDropShadow dx="0" dy="12" stdDeviation="18" flood-color="#000" flood-opacity="0.35"/>
    </filter>
  </defs>

  <!-- rounded square background -->
  <rect x="48" y="48" width="416" height="416" rx="112" fill="url(#g)" filter="url(#shadow)"/>

  <!-- subtle inner highlight -->
  <path d="M140 110h232c56 0 102 46 102 102v0" fill="none" stroke="#fff" stroke-opacity="0.22" stroke-width="18" stroke-linecap="round"/>

  <!-- music note -->
  <g fill="#0B1220" fill-opacity="0.90">
    <path d="M322 152c0-8 6-14 14-14h18c8 0 14 6 14 14v186c0 43-36 78-80 78s-80-35-80-78 36-78 80-78c13 0 25 3 36 8V152zm-56 144c-23 0-42 18-42 40s19 40 42 40 42-18 42-40-19-40-42-40z"/>
    <path d="M182 196c0-10 8-18 18-18h22c10 0 18 8 18 18v162c0 36-30 66-68 66s-68-30-68-66 30-66 68-66c10 0 20 2 28 6V196zm-40 150c-20 0-36 16-36 36s16 36 36 36 36-16 36-36-16-36-36-36z"/>
  </g>
</svg>
